

 
http://www.imdb.com/title/tt1483013/



A veteran assigned to extract Earth's remaining resources begins to question what he knows about his mission and himself. 



Director:
 Joseph Kosinski 

Writers:
 Joseph Kosinski ,Karl Gajdusek 

Stars:
 Tom Cruise, Morgan Freeman, Andrea Riseborough 

Genres:
  Action |  Adventure |  Sci-Fi |  Thriller 

Country:
 USA 

Language:
 English 


Thanks: FOX


Format                                   : AVI
Format/Info                              : Audio Video Interleave
File size                                : 697 MiB
Duration                                 : 1h 57mn
Overall bit rate                         : 833 Kbps
Writing application                      : Lavf54.59.103
Writing library                          : VirtualDub build 32842/release

Video
ID                                       : 0
Format                                   : MPEG-4 Visual
Format profile                           : Simple@L3
Format settings, BVOP                    : No
Format settings, QPel                    : No
Format settings, GMC                     : No warppoints
Format settings, Matrix                  : Default (H.263)
Codec ID                                 : XVID
Codec ID/Hint                            : XviD
Duration                                 : 1h 57mn
Bit rate                                 : 694 Kbps
Width                                    : 640 pixels
Height                                   : 240 pixels
Display aspect ratio                     : 2.667
Frame rate                               : 25.000 fps
Color space                              : YUV
Chroma subsampling                       : 4:2:0
Bit depth                                : 8 bits
Scan type                                : Progressive
Compression mode                         : Lossy
Bits/(Pixel*Frame)                       : 0.181
Stream size                              : 581 MiB (83%)
Writing library                          : XviD 1.3.0.dev55

Audio
ID                                       : 1
Format                                   : AC-3
Format/Info                              : Audio Coding 3
Mode extension                           : CM (complete main)
Format settings, Endianness              : Big
Codec ID                                 : 2000
Duration                                 : 1h 57mn
Bit rate mode                            : Constant
Bit rate                                 : 128 Kbps
Channel(s)                               : 2 channels
Channel positions                        : Front: L R
Sampling rate                            : 48.0 KHz
Bit depth                                : 16 bits
Compression mode                         : Lossy
Stream size                              : 107 MiB (15%)
Alignment                                : Aligned on interleaves
Interleave, duration                     : 32 ms (0.80 video frame)
Interleave, preload duration             : 512 ms




    	http://www.shotpix.com/images/38443311873592300442.png
    	http://www.shotpix.com/images/43309900276370001904.png
    	http://www.shotpix.com/images/32986535485667277955.png
    	http://www.shotpix.com/images/40810416343149127545.png
    	http://www.shotpix.com/images/67752650157624762519.png